# xmcd
#
# Track frame offsets: 
#        187
#        28095
#        41945
#        60525
#        73072
#
# Disc length: 1268 seconds
#
# Revision: 1
# Processed by: cddbd v1.5.2PL0 Copyright (c) Steve Scherf et al.
# Submitted via: ExactAudioCopy v0.95b4
#
DISCID=4604f205
DTITLE=Gary Moore - Still Got the Blues
DYEAR=1990
DGENRE=Pop
TTITLE0=Still Got the Blues
TTITLE1=Left me with the Blues
TTITLE2=Further on up the Road
TTITLE3=Mean Cruel Woman
TTITLE4=The Sky is Crying
EXTD=
EXTT0=
EXTT1=
EXTT2=
EXTT3=
EXTT4=
PLAYORDER=
